REM DIRINDEX 1\5,1\2\6,1\2\7,1\3\8,1\3\9,1\4\10,1\4\11,1\4\12
REM DIRNAME folder01,folder02,folder03,folder04,folder05,folder06,folder07,folder08,folder09,folder10,folder11,folder12
TITLE ""
FILE "EJE_DB3000_5th_1A_07.mp3" MP3
  TRACK 01 AUDIO
    TITLE "0:"
    INDEX 01 00:00:00
  TRACK 02 AUDIO
    TITLE "10:cjc026_07059"
    INDEX 01 00:00:05
  TRACK 03 AUDIO
    TITLE "0:"
    INDEX 01 00:00:60
  TRACK 04 AUDIO
    TITLE "11:cjc026_07060"
    INDEX 01 00:01:21
  TRACK 05 AUDIO
    TITLE "0:"
    INDEX 01 00:02:30
  TRACK 06 AUDIO
    TITLE "12:cjc026_07061"
    INDEX 01 00:02:55
  TRACK 07 AUDIO
    TITLE "0:"
    INDEX 01 00:03:35
  TRACK 08 AUDIO
    TITLE "10:cjc026_07062"
    INDEX 01 00:03:70
  TRACK 09 AUDIO
    TITLE "0:"
    INDEX 01 00:04:60
  TRACK 10 AUDIO
    TITLE "11:cjc026_07063"
    INDEX 01 00:05:12
  TRACK 11 AUDIO
    TITLE "0:"
    INDEX 01 00:06:12
  TRACK 12 AUDIO
    TITLE "12:cjc026_07064"
    INDEX 01 00:06:37
  TRACK 13 AUDIO
    TITLE "0:"
    INDEX 01 00:07:27
  TRACK 14 AUDIO
    TITLE "10:cjc026_07065"
    INDEX 01 00:07:54
  TRACK 15 AUDIO
    TITLE "0:"
    INDEX 01 00:08:42
  TRACK 16 AUDIO
    TITLE "11:cjc026_07066"
    INDEX 01 00:08:70
  TRACK 17 AUDIO
    TITLE "0:"
    INDEX 01 00:10:02
  TRACK 18 AUDIO
    TITLE "12:cjc026_07067"
    INDEX 01 00:10:27
  TRACK 19 AUDIO
    TITLE "0:"
    INDEX 01 00:11:17
  TRACK 20 AUDIO
    TITLE "10:cjc026_07068"
    INDEX 01 00:11:42
  TRACK 21 AUDIO
    TITLE "0:"
    INDEX 01 00:12:34
  TRACK 22 AUDIO
    TITLE "11:cjc026_07069"
    INDEX 01 00:12:60
  TRACK 23 AUDIO
    TITLE "0:"
    INDEX 01 00:13:55
  TRACK 24 AUDIO
    TITLE "12:cjc026_07070"
    INDEX 01 00:14:06
  TRACK 25 AUDIO
    TITLE "0:"
    INDEX 01 00:14:70
  TRACK 26 AUDIO
    TITLE "10:cjc026_07071"
    INDEX 01 00:15:21
  TRACK 27 AUDIO
    TITLE "0:"
    INDEX 01 00:16:12
  TRACK 28 AUDIO
    TITLE "11:cjc026_07072"
    INDEX 01 00:16:40
  TRACK 29 AUDIO
    TITLE "0:"
    INDEX 01 00:17:29
  TRACK 30 AUDIO
    TITLE "12:cjc026_07073"
    INDEX 01 00:17:55
  TRACK 31 AUDIO
    TITLE "0:"
    INDEX 01 00:18:46
  TRACK 32 AUDIO
    TITLE "10:cjc026_07074"
    INDEX 01 00:18:74
  TRACK 33 AUDIO
    TITLE "0:"
    INDEX 01 00:19:63
  TRACK 34 AUDIO
    TITLE "11:cjc026_07075"
    INDEX 01 00:20:14
  TRACK 35 AUDIO
    TITLE "0:"
    INDEX 01 00:21:11
  TRACK 36 AUDIO
    TITLE "12:cjc026_07076"
    INDEX 01 00:21:37
  TRACK 37 AUDIO
    TITLE "0:"
    INDEX 01 00:22:29
  TRACK 38 AUDIO
    TITLE "10:cjc026_07077"
    INDEX 01 00:22:54
  TRACK 39 AUDIO
    TITLE "0:"
    INDEX 01 00:23:51
  TRACK 40 AUDIO
    TITLE "11:cjc026_07078"
    INDEX 01 00:24:02
  TRACK 41 AUDIO
    TITLE "0:"
    INDEX 01 00:25:05
  TRACK 42 AUDIO
    TITLE "12:cjc026_07079"
    INDEX 01 00:25:31
  TRACK 43 AUDIO
    TITLE "0:"
    INDEX 01 00:26:28
  TRACK 44 AUDIO
    TITLE "10:cjc026_07080"
    INDEX 01 00:26:54
  TRACK 45 AUDIO
    TITLE "0:"
    INDEX 01 00:27:41
  TRACK 46 AUDIO
    TITLE "11:cjc026_07081"
    INDEX 01 00:27:69
  TRACK 47 AUDIO
    TITLE "0:"
    INDEX 01 00:29:03
  TRACK 48 AUDIO
    TITLE "12:cjc026_07082"
    INDEX 01 00:29:29
  TRACK 49 AUDIO
    TITLE "0:"
    INDEX 01 00:30:16
  TRACK 50 AUDIO
    TITLE "10:cjc026_07083"
    INDEX 01 00:30:44
  TRACK 51 AUDIO
    TITLE "0:"
    INDEX 01 00:31:33
  TRACK 52 AUDIO
    TITLE "11:cjc026_07084"
    INDEX 01 00:31:59
  TRACK 53 AUDIO
    TITLE "0:"
    INDEX 01 00:32:68
  TRACK 54 AUDIO
    TITLE "12:cjc026_07085"
    INDEX 01 00:33:19
  TRACK 55 AUDIO
    TITLE "0:"
    INDEX 01 00:34:08
  TRACK 56 AUDIO
    TITLE "10:cjc026_07086"
    INDEX 01 00:34:36
  TRACK 57 AUDIO
    TITLE "0:"
    INDEX 01 00:35:25
  TRACK 58 AUDIO
    TITLE "11:cjc026_07087"
    INDEX 01 00:35:53
  TRACK 59 AUDIO
    TITLE "0:"
    INDEX 01 00:36:48
  TRACK 60 AUDIO
    TITLE "12:cjc026_07088"
    INDEX 01 00:37:01
  TRACK 61 AUDIO
    TITLE "0:"
    INDEX 01 00:37:67
  TRACK 62 AUDIO
    TITLE "10:cjc026_07089"
    INDEX 01 00:38:18
  TRACK 63 AUDIO
    TITLE "0:"
    INDEX 01 00:39:07
  TRACK 64 AUDIO
    TITLE "11:cjc026_07090"
    INDEX 01 00:39:33
  TRACK 65 AUDIO
    TITLE "0:"
    INDEX 01 00:40:34
  TRACK 66 AUDIO
    TITLE "12:cjc026_07091"
    INDEX 01 00:40:60
  TRACK 67 AUDIO
    TITLE "0:"
    INDEX 01 00:41:47
